<svg xmlns="http://www.w3.org/2000/svg" xmlns:xlink="http://www.w3.org/1999/xlink" xmlns:svgjs="http://svgjs.com/svgjs" version="1.1" width="512" height="512" x="0" y="0" viewBox="0 0 512.151 512.151" style="enable-background:new 0 0 512 512" xml:space="preserve" class=""><g>
<g>
	<g>
		<g>
			<g>
				
					<rect x="206.53" y="138.643" transform="matrix(-1.836970e-16 1 -1 -1.836970e-16 409.0708 -103.0804)" style="stroke-width:15;stroke-linecap:round;stroke-linejoin:round;stroke-miterlimit:10;" width="99.091" height="28.704" fill="none" stroke="#ffffff" stroke-width="15" stroke-linecap="round" stroke-linejoin="round" stroke-miterlimit="10" data-original="#000000"/>
				<g>
					<g>
						
							<path style="stroke-width:15;stroke-linecap:round;stroke-linejoin:round;stroke-miterlimit:10;" d="        M154.097,211.429c-23.461,0.085-42.67-18.867-42.905-42.32h85.171C196.132,192.126,177.324,211.429,154.097,211.429z" fill="none" stroke="#ffffff" stroke-width="15" stroke-linecap="round" stroke-linejoin="round" stroke-miterlimit="10" data-original="#000000"/>
						
							<polyline style="stroke-width:15;stroke-linecap:round;stroke-linejoin:round;stroke-miterlimit:10;" points="        124.099,169.109 153.777,103.45 183.456,169.109       " fill="none" stroke="#ffffff" stroke-width="15" stroke-linecap="round" stroke-linejoin="round" stroke-miterlimit="10" data-original="#000000"/>
					</g>
					<g>
						
							<path style="stroke-width:15;stroke-linecap:round;stroke-linejoin:round;stroke-miterlimit:10;" d="        M358.693,211.429c-23.461,0.085-42.67-18.867-42.905-42.32h85.171C400.729,192.126,381.921,211.429,358.693,211.429z" fill="none" stroke="#ffffff" stroke-width="15" stroke-linecap="round" stroke-linejoin="round" stroke-miterlimit="10" data-original="#000000"/>
						
							<polyline style="stroke-width:15;stroke-linecap:round;stroke-linejoin:round;stroke-miterlimit:10;" points="        328.695,169.109 358.374,103.45 388.052,169.109       " fill="none" stroke="#ffffff" stroke-width="15" stroke-linecap="round" stroke-linejoin="round" stroke-miterlimit="10" data-original="#000000"/>
					</g>
				</g>
			</g>
			<path style="stroke-width:15;stroke-linecap:round;stroke-linejoin:round;stroke-miterlimit:10;" d="     M144.95,74.672h-7.636c-15.853,0-28.704,12.884-28.704,28.778h294.93c0-15.893-12.851-28.778-28.704-28.778h-37.302     c-9.935,0-18.906-5.543-23.817-14.202c-5.526-9.745-16.052-14.946-27.039-14.575v-7.791c0-16.902-13.702-30.604-30.604-30.604h0     c-16.902,0-30.604,13.702-30.604,30.604v7.791c-10.986-0.37-21.512,4.83-27.039,14.575c-4.91,8.659-13.881,14.202-23.817,14.202" fill="none" stroke="#ffffff" stroke-width="15" stroke-linecap="round" stroke-linejoin="round" stroke-miterlimit="10" data-original="#000000"/>
		</g>
		<path style="stroke-width:15;stroke-linecap:round;stroke-linejoin:round;stroke-miterlimit:10;" d="    M327.802,255.479v-0.037c0-15.873-12.868-28.741-28.741-28.741h-10.97c2.072-2.549,3.317-5.797,3.317-9.338    c0-8.187-6.637-14.823-14.823-14.823h-41.02c-8.187,0-14.823,6.637-14.823,14.823c0,3.541,1.245,6.789,3.317,9.338h-10.97    c-15.873,0-28.741,12.868-28.741,28.741v0.037" fill="none" stroke="#ffffff" stroke-width="15" stroke-linecap="round" stroke-linejoin="round" stroke-miterlimit="10" data-original="#000000"/>
		<g>
			<g>
				<g>
					<g>
						
							<path style="stroke-width:15;stroke-linecap:round;stroke-linejoin:round;stroke-miterlimit:10;" d="        M358.076,504.651H55.585c-6.288,0-11.385-5.097-11.385-11.385V292.669c0-6.288,5.097-11.385,11.385-11.385h18.806" fill="none" stroke="#ffffff" stroke-width="15" stroke-linecap="round" stroke-linejoin="round" stroke-miterlimit="10" data-original="#000000"/>
						
							<path style="stroke-width:15;stroke-linecap:round;stroke-linejoin:round;stroke-miterlimit:10;" d="        M437.76,281.284h18.806c6.288,0,11.385,5.097,11.385,11.385v200.597c0,6.288-5.097,11.385-11.385,11.385h-65.607" fill="none" stroke="#ffffff" stroke-width="15" stroke-linecap="round" stroke-linejoin="round" stroke-miterlimit="10" data-original="#000000"/>
						<g>
							
								<line style="stroke-width:15;stroke-linecap:round;stroke-linejoin:round;stroke-miterlimit:10;" x1="402.722" y1="470.109" x2="437.76" y2="504.651" fill="none" stroke="#ffffff" stroke-width="15" stroke-linecap="round" stroke-linejoin="round" stroke-miterlimit="10" data-original="#000000"/>
							<g>
								
									<path style="stroke-width:15;stroke-linecap:round;stroke-linejoin:round;stroke-miterlimit:10;" d="          M256.076,499.894L256.076,499.894c0-16.45,13.316-29.785,29.741-29.785h116.905V255.479H295.731          c-21.901,0-39.655,17.78-39.655,39.714V499.894z" fill="none" stroke="#ffffff" stroke-width="15" stroke-linecap="round" stroke-linejoin="round" stroke-miterlimit="10" data-original="#000000"/>
							</g>
							
								<line style="stroke-width:15;stroke-linecap:round;stroke-linejoin:round;stroke-miterlimit:10;" x1="109.429" y1="470.109" x2="74.391" y2="504.651" fill="none" stroke="#ffffff" stroke-width="15" stroke-linecap="round" stroke-linejoin="round" stroke-miterlimit="10" data-original="#000000"/>
							<g>
								
									<path style="stroke-width:15;stroke-linecap:round;stroke-linejoin:round;stroke-miterlimit:10;" d="          M256.076,499.894L256.076,499.894c0-16.45-13.316-29.785-29.741-29.785H109.429V255.479h106.991          c21.901,0,39.655,17.78,39.655,39.714V499.894z" fill="none" stroke="#ffffff" stroke-width="15" stroke-linecap="round" stroke-linejoin="round" stroke-miterlimit="10" data-original="#000000"/>
							</g>
							
								<polygon style="stroke-width:15;stroke-linecap:round;stroke-linejoin:round;stroke-miterlimit:10;" points="         109.429,470.109 74.391,504.651 74.391,282.948 109.429,255.479        " fill="none" stroke="#ffffff" stroke-width="15" stroke-linecap="round" stroke-linejoin="round" stroke-miterlimit="10" data-original="#000000"/>
							
								<polygon style="stroke-width:15;stroke-linecap:round;stroke-linejoin:round;stroke-miterlimit:10;" points="         437.76,504.651 402.722,470.109 402.722,255.479 437.76,282.948        " fill="none" stroke="#ffffff" stroke-width="15" stroke-linecap="round" stroke-linejoin="round" stroke-miterlimit="10" data-original="#000000"/>
						</g>
					</g>
				</g>
			</g>
			
				<line style="stroke-width:15;stroke-linecap:round;stroke-linejoin:round;stroke-miterlimit:10;" x1="294.074" y1="306.597" x2="362.921" y2="306.597" fill="none" stroke="#ffffff" stroke-width="15" stroke-linecap="round" stroke-linejoin="round" stroke-miterlimit="10" data-original="#000000"/>
			
				<line style="stroke-width:15;stroke-linecap:round;stroke-linejoin:round;stroke-miterlimit:10;" x1="294.074" y1="339.46" x2="362.921" y2="339.46" fill="none" stroke="#ffffff" stroke-width="15" stroke-linecap="round" stroke-linejoin="round" stroke-miterlimit="10" data-original="#000000"/>
			
				<line style="stroke-width:15;stroke-linecap:round;stroke-linejoin:round;stroke-miterlimit:10;" x1="294.074" y1="372.324" x2="362.921" y2="372.324" fill="none" stroke="#ffffff" stroke-width="15" stroke-linecap="round" stroke-linejoin="round" stroke-miterlimit="10" data-original="#000000"/>
			
				<line style="stroke-width:15;stroke-linecap:round;stroke-linejoin:round;stroke-miterlimit:10;" x1="294.074" y1="405.187" x2="338.234" y2="405.187" fill="none" stroke="#ffffff" stroke-width="15" stroke-linecap="round" stroke-linejoin="round" stroke-miterlimit="10" data-original="#000000"/>
		</g>
	</g>
	
		<line style="stroke-width:15;stroke-linecap:round;stroke-linejoin:round;stroke-miterlimit:10;" x1="256.076" y1="38.02" x2="256.076" y2="38.02" fill="none" stroke="#ffffff" stroke-width="15" stroke-linecap="round" stroke-linejoin="round" stroke-miterlimit="10" data-original="#000000"/>
	
		<line style="stroke-width:15;stroke-linecap:round;stroke-linejoin:round;stroke-miterlimit:10;" x1="231.013" y1="75.02" x2="281.138" y2="75.02" fill="none" stroke="#ffffff" stroke-width="15" stroke-linecap="round" stroke-linejoin="round" stroke-miterlimit="10" data-original="#000000"/>
</g>















</g></svg>