<svg xmlns="http://www.w3.org/2000/svg" xmlns:xlink="http://www.w3.org/1999/xlink" xmlns:svgjs="http://svgjs.com/svgjs" version="1.1" width="512" height="512" x="0" y="0" viewBox="0 0 512 512" style="enable-background:new 0 0 512 512" xml:space="preserve" class=""><g>
<g>
	<g>
		<path d="M410.147,302.828c-13.526,0-24.532,11.006-24.532,24.532c0,13.526,11.006,24.531,24.532,24.531    s24.532-11.005,24.532-24.531C434.679,313.833,423.673,302.828,410.147,302.828z M410.147,336.85    c-5.234,0-9.492-4.258-9.492-9.491c0-5.234,4.258-9.492,9.492-9.492c5.234,0,9.492,4.257,9.492,9.492    C419.638,332.593,415.381,336.85,410.147,336.85z" fill="#ffffff" data-original="#000000"/>
	</g>
</g>
<g>
	<g>
		<path d="M489.439,272.53h-4.715V170.191c0-4.154-3.366-7.52-7.52-7.52h-39.21V79.369c0-4.154-3.366-7.52-7.52-7.52H319.95    l-51.693-51.693c-2.938-2.936-7.699-2.936-10.636,0L234.37,43.406l-23.252-23.251c-2.936-2.936-7.698-2.936-10.636,0    l-51.692,51.693H49.57C22.237,71.848,0,94.085,0,121.419v3.364v0.001v3.359v312.972c0,29.187,23.745,52.932,52.932,52.932h62.281    c4.154,0,7.52-3.366,7.52-7.52s-3.366-7.52-7.52-7.52H52.932c-20.893,0-37.891-16.999-37.891-37.892V163.659    c8.933,8.687,21.113,14.053,34.529,14.053h243.243c4.154,0,7.52-3.366,7.52-7.52s-3.366-7.52-7.52-7.52H179.365l62.723-62.722    c12.651,8.401,29.276,8.4,41.929-0.001l62.722,62.723h-23.845c-4.154,0-7.52,3.366-7.52,7.52s3.366,7.52,7.52,7.52h146.791v94.817    h-65.904c-30.233,0-54.831,24.596-54.831,54.831c0,30.233,24.596,54.831,54.831,54.831h65.905v96.816H145.293    c-4.154,0-7.52,3.366-7.52,7.52s3.366,7.52,7.52,7.52h331.911c4.154,0,7.52-3.366,7.52-7.52V382.19h4.715    c12.44,0,22.561-10.121,22.561-22.561v-64.539C512,282.65,501.879,272.53,489.439,272.53z M79.239,162.671l21.534-21.533    c2.937-2.937,2.937-7.698,0-10.636c-2.938-2.936-7.699-2.936-10.636,0l-32.169,32.169h-5.037    c-20.87,0-37.854-16.962-37.891-37.824v-0.065v-3.363c0-19.039,15.489-34.53,34.529-34.53h84.182l-22.309,22.309    c-2.937,2.938-2.937,7.699,0,10.636c2.938,2.936,7.699,2.936,10.636,0l83.724-83.725l17.933,17.932L115.105,162.671H79.239z     M368.009,162.672v-0.001l-78.146-78.146c-2.937-2.936-7.699-2.936-10.635,0c-8.921,8.92-23.433,8.921-32.354,0.001    c-1.41-1.411-3.324-2.203-5.318-2.203s-3.907,0.792-5.318,2.202l-78.146,78.146h-21.714L239.689,59.36    c0.003-0.003,0.006-0.007,0.009-0.01l23.241-23.241l48.573,48.573c0.003,0.003,0.007,0.007,0.01,0.01l77.98,77.98H368.009z     M422.955,162.671h-12.183L334.99,86.889h87.965V162.671z M496.96,359.63c0,4.147-3.373,7.52-7.52,7.52h-85.66    c-21.94,0-39.79-17.85-39.79-39.79c0-21.94,17.85-39.79,39.79-39.79h85.66c4.147,0,7.52,3.373,7.52,7.52V359.63z" fill="#ffffff" data-original="#000000"/>
	</g>
</g>
<g>
</g>
<g>
</g>
<g>
</g>
<g>
</g>
<g>
</g>
<g>
</g>
<g>
</g>
<g>
</g>
<g>
</g>
<g>
</g>
<g>
</g>
<g>
</g>
<g>
</g>
<g>
</g>
<g>
</g>
</g></svg>